<?xml version="1.0" encoding="UTF-8" standalone="no"?>
<!-- Created with Inkscape (http://www.inkscape.org/) -->

<svg
   version="1.1"
   id="svg470"
   width="2666.6667"
   height="2666.6667"
   viewBox="0 0 2666.6667 2666.6667"
   xmlns="http://www.w3.org/2000/svg"
   xmlns:svg="http://www.w3.org/2000/svg">
  <defs
     id="defs474">
    <clipPath
       clipPathUnits="userSpaceOnUse"
       id="clipPath488">
      <path
         d="M 0,2000 H 2000 V 0 H 0 Z"
         id="path486" />
    </clipPath>
  </defs>
  <g
     id="g478"
     transform="matrix(1.3333333,0,0,-1.3333333,0,2666.6667)">
    <path
       d="M 114.636,494.201 H 1885.091 V 1505.889 H 114.636 Z"
       style="fill:#000000;fill-opacity:1;fill-rule:nonzero;stroke:none"
       id="path480" />
    <g
       id="g482">
      <g
         id="g484"
         clip-path="url(#clipPath488)">
        <g
           id="g490"
           transform="translate(872.0254,1017.8525)">
          <path
             d="m 0,0 c -8.102,-0.077 -16.203,-0.087 -24.304,-0.355 -8.102,-0.17 -16.204,-0.429 -24.305,-0.822 -8.101,-0.301 -16.203,-0.844 -24.305,-1.376 -8.102,-0.593 -16.203,-1.241 -24.304,-2.202 8.101,-0.962 16.202,-1.609 24.304,-2.203 8.102,-0.532 16.204,-1.075 24.305,-1.376 8.101,-0.393 16.203,-0.652 24.305,-0.822 2.28,-0.075 4.56,-0.098 6.842,-0.14 -4.649,-2.721 -9.288,-5.46 -13.943,-8.169 -9.634,-5.685 -19.188,-11.51 -28.724,-17.364 l -14.236,-8.901 -14.125,-9.094 c -9.357,-6.166 -18.713,-12.335 -27.831,-18.915 10.268,4.583 20.3,9.578 30.329,14.576 l 14.956,7.651 14.844,7.845 c 9.851,5.31 19.683,10.65 29.437,16.128 9.718,5.539 19.513,10.945 29.129,16.662 l 15.209,9.044 z"
             style="fill:#ffffff;fill-opacity:1;fill-rule:nonzero;stroke:none"
             id="path492" />
        </g>
        <g
           id="g494"
           transform="translate(838.3696,950.2744)">
          <path
             d="M 0,0 C -0.991,8.245 -2.063,16.486 -3.188,24.725 -3.073,16.41 -2.904,8.099 -2.654,-0.209 l 0.184,-6.23 c -0.052,-2.016 -0.08,-3.999 -0.191,-5.973 -0.402,-1.941 -0.56,-3.918 -1.136,-5.793 -0.69,-1.839 -1.042,-3.785 -2.041,-5.483 -3.265,-7.042 -8.704,-13.041 -15.448,-16.683 -6.722,-3.631 -14.44,-5.263 -21.872,-4.339 -1.835,0.334 -3.672,0.705 -5.465,1.182 -1.724,0.727 -3.553,1.151 -5.185,2.076 -1.671,0.989 -3.212,1.584 -5.025,2.8 l -5.283,3.293 -21.132,13.173 -42.476,25.994 -18.782,11.226 c 1.609,1.653 3.214,3.31 4.826,4.96 l 33.079,34.708 c 21.881,23.302 43.672,46.688 64.969,70.542 l 4.013,4.454 c 1.445,1.6 2.367,2.714 3.735,3.675 2.625,1.9 5.972,2.79 9.324,2.435 3.346,-0.344 6.612,-1.904 9.004,-4.37 2.475,-2.505 3.771,-5.703 4.172,-9.616 2.371,-15.831 4.893,-31.638 7.518,-47.42 -1.185,15.954 -2.474,31.884 -3.914,47.789 -0.082,4.028 -1.323,8.871 -4.309,12.313 -2.881,3.558 -7.13,5.926 -11.685,6.736 -4.562,0.822 -9.523,-0.073 -13.575,-2.599 -2.018,-1.197 -3.848,-3.037 -5.124,-4.349 l -4.226,-4.252 C -71.348,107.465 -93.5,84.421 -115.565,61.294 l -32.838,-34.936 c -2.014,-2.194 -4.034,-4.382 -6.053,-6.573 l -16.014,9.571 -21.485,12.591 -5.371,3.149 -2.685,1.573 c -0.892,0.518 -1.887,1.095 -2.338,1.444 -2.422,1.503 -3.54,4.229 -3.345,7.116 0.32,2.872 2.083,5.628 4.73,6.73 0.656,0.279 1.358,0.516 2.108,0.603 l 1.137,0.138 1.554,0.036 6.225,0.179 24.899,0.794 c 16.599,0.665 33.199,1.298 49.798,2.371 -16.599,1.073 -33.199,1.708 -49.798,2.372 l -24.899,0.793 -6.225,0.18 -1.558,0.034 -1.965,-0.119 c -1.301,-0.105 -2.641,-0.447 -3.895,-0.921 -5.191,-1.918 -8.786,-6.905 -9.584,-12.219 -0.838,-5.31 1.457,-11.448 6.025,-14.619 1.19,-0.928 2.003,-1.375 2.885,-1.935 l 2.641,-1.646 5.283,-3.294 21.131,-13.175 14.301,-8.747 c -6.663,-7.231 -13.317,-14.471 -19.893,-21.785 l -8.027,-8.907 -4.013,-4.453 c -0.582,-0.644 -1.553,-1.684 -2.253,-2.824 -0.718,-1.134 -1.242,-2.425 -1.537,-3.76 -1.212,-5.465 1.562,-10.956 6.06,-13.527 2.248,-1.314 4.998,-1.85 7.543,-1.452 1.25,0.18 2.517,0.619 3.536,1.081 l 2.725,1.25 c 14.482,6.796 28.981,13.551 43.295,20.746 -15.175,-5.137 -30.166,-10.715 -45.174,-16.254 l -2.803,-1.062 c -0.826,-0.3 -1.48,-0.462 -2.216,-0.525 -1.426,-0.109 -2.792,0.28 -3.943,1.064 -2.353,1.554 -3.522,4.74 -2.722,7.113 0.189,0.601 0.461,1.173 0.84,1.71 0.386,0.541 0.802,0.954 1.598,1.754 l 4.226,4.253 8.452,8.504 c 7.38,7.407 14.673,14.898 21.959,22.394 l 20.53,-12.556 42.752,-25.537 21.484,-12.593 c 3.584,-2.084 7.003,-4.243 11.322,-6.211 2.044,-1.01 4.323,-1.499 6.47,-2.245 2.224,-0.498 4.498,-0.856 6.75,-1.139 9.11,-0.693 18.308,1.619 25.884,6.398 7.594,4.761 13.442,12.063 16.578,20.29 0.944,2.001 1.212,4.232 1.793,6.335 0.467,2.135 0.489,4.347 0.74,6.499 -0.041,2.166 -0.184,4.34 -0.308,6.47 z"
             style="fill:#ffffff;fill-opacity:1;fill-rule:nonzero;stroke:none"
             id="path496" />
        </g>
        <g
           id="g498"
           transform="translate(878.7866,1046.479)">
          <path
             d="M 0,0 C 0,5.281 4.281,9.563 9.563,9.563 4.281,9.563 0,13.844 0,19.125 0,13.844 -4.281,9.563 -9.562,9.563 -4.281,9.563 0,5.281 0,0"
             style="fill:#ffffff;fill-opacity:1;fill-rule:nonzero;stroke:none"
             id="path500" />
        </g>
        <g
           id="g502"
           transform="translate(738.5664,979.6055)">
          <path
             d="M 0,0 C 5.282,0 9.563,-4.282 9.563,-9.563 9.563,-4.282 13.844,0 19.125,0 13.844,0 9.563,4.281 9.563,9.563 9.563,4.281 5.282,0 0,0"
             style="fill:#ffffff;fill-opacity:1;fill-rule:nonzero;stroke:none"
             id="path504" />
        </g>
        <g
           id="g506"
           transform="translate(712.021,1046.479)">
          <path
             d="M 0,0 C 0,11.725 9.504,21.229 21.229,21.229 9.504,21.229 0,30.733 0,42.458 0,30.733 -9.504,21.229 -21.229,21.229 -9.504,21.229 0,11.725 0,0"
             style="fill:#ffffff;fill-opacity:1;fill-rule:nonzero;stroke:none"
             id="path508" />
        </g>
        <g
           id="g510"
           transform="translate(999.8882,1020.9878)">
          <path
             d="m 0,0 h -40.37 l 20.159,47.494 z m -81.463,-54.655 h 17.905 l 16.731,39.578 H 6.315 L 23.136,-54.655 H 41.041 L -20.211,83.867 Z"
             style="fill:#ffffff;fill-opacity:1;fill-rule:nonzero;stroke:none"
             id="path512" />
        </g>
        <g
           id="g514"
           transform="translate(1092.3779,1054.9121)">
          <path
             d="m 0,0 c -8.419,0 -16.021,-1.949 -22.805,-5.841 -6.784,-3.899 -12.156,-9.236 -16.114,-16.022 -3.958,-6.783 -5.936,-14.576 -5.936,-23.368 0,-8.67 1.978,-16.43 5.936,-23.276 3.958,-6.848 9.33,-12.222 16.114,-16.114 6.784,-3.896 14.386,-5.842 22.805,-5.842 5.904,0 11.652,0.975 17.244,2.921 5.589,1.946 9.895,4.68 12.91,8.199 v 18.847 c -1.258,-2.766 -3.393,-5.373 -6.407,-7.823 C 20.73,-70.769 17.18,-72.718 13.099,-74.16 9.014,-75.606 4.646,-76.33 0,-76.33 c -5.655,0 -10.714,1.35 -15.173,4.053 -4.461,2.7 -7.979,6.375 -10.553,11.027 -2.576,4.646 -3.863,9.987 -3.863,16.019 0,6.029 1.287,11.402 3.863,16.114 2.574,4.712 6.092,8.387 10.553,11.024 4.459,2.637 9.518,3.958 15.173,3.958 4.646,0 9.014,-0.724 13.099,-2.167 4.081,-1.446 7.631,-3.362 10.648,-5.749 3.014,-2.387 5.149,-5.028 6.407,-7.915 v 18.846 c -3.015,3.517 -7.321,6.25 -12.91,8.199 C 11.652,-0.975 5.904,0 0,0"
             style="fill:#ffffff;fill-opacity:1;fill-rule:nonzero;stroke:none"
             id="path516" />
        </g>
        <g
           id="g518"
           transform="translate(1179.4492,1054.9121)">
          <path
             d="m 0,0 c -4.022,0 -7.98,-1.574 -11.874,-4.712 -2.428,-1.958 -4.541,-4.394 -6.407,-7.207 v 10.036 h -15.077 v -86.696 h 15.077 v 52.771 c 0,4.146 0.407,7.85 1.224,11.12 0.816,3.266 2.29,5.841 4.429,7.728 2.136,1.883 5.089,2.825 8.859,2.825 2.511,0 4.585,-0.346 6.218,-1.037 1.632,-0.692 3.454,-1.788 5.466,-3.297 l 8.293,12.437 C 13.945,-3.645 11.465,-2.044 8.764,-1.225 6.06,-0.409 3.14,0 0,0"
             style="fill:#ffffff;fill-opacity:1;fill-rule:nonzero;stroke:none"
             id="path520" />
        </g>
        <g
           id="g522"
           transform="translate(1266.3291,1000.2573)">
          <path
             d="m 0,0 c 0,-4.274 -0.912,-8.043 -2.731,-11.307 -1.825,-3.27 -4.401,-5.815 -7.728,-7.636 -3.331,-1.82 -7.194,-2.732 -11.591,-2.732 -6.031,0 -10.62,1.886 -13.758,5.656 C -38.95,-12.252 -40.52,-6.912 -40.52,0 V 52.771 H -55.597 V -1.883 c 0,-10.306 2.701,-18.537 8.104,-24.692 5.401,-6.157 12.627,-9.233 21.674,-9.233 5.777,0 10.804,1.288 15.077,3.863 4.27,2.574 7.851,6.437 10.742,11.59 V -33.924 H 15.078 V 52.771 H 0 Z"
             style="fill:#ffffff;fill-opacity:1;fill-rule:nonzero;stroke:none"
             id="path524" />
        </g>
        <g
           id="g526"
           transform="translate(1343.2227,1011.001)">
          <path
             d="M 0,0 29.588,42.028 H 12.627 L -8.105,11.874 -28.836,42.028 H -45.798 L -16.208,0 -47.683,-44.668 h 16.962 l 22.616,32.792 22.616,-32.792 h 16.962 z"
             style="fill:#ffffff;fill-opacity:1;fill-rule:nonzero;stroke:none"
             id="path528" />
        </g>
        <g
           id="g530"
           transform="translate(950.8892,905.54)">
          <path
             d="M 0,0 -9.744,25.765 -19.3,0 -28.014,24.126 h -4.45 l 12.882,-34.43 9.838,25.484 9.838,-25.484 12.883,34.43 H 8.525 Z"
             style="fill:#ffffff;fill-opacity:1;fill-rule:nonzero;stroke:none"
             id="path532" />
        </g>
        <g
           id="g534"
           transform="translate(978.7144,929.666)">
          <path
             d="M 0,0 H -2.201 V -32.792 H 0 1.78 16.537 v 3.748 H 1.78 v 12.18 h 13.821 v 3.747 H 1.78 v 9.369 H 16.537 V 0 H 1.78 Z"
             style="fill:#ffffff;fill-opacity:1;fill-rule:nonzero;stroke:none"
             id="path536" />
        </g>
        <g
           id="g538"
           transform="translate(1025.8633,903.292)">
          <path
             d="m 0,0 c -0.608,-0.937 -1.452,-1.656 -2.529,-2.154 -1.076,-0.501 -2.32,-0.75 -3.725,-0.75 h -4.919 V 9.649 h 4.919 c 1.063,0 2.029,-0.13 2.904,-0.398 C -2.475,8.985 -1.717,8.59 -1.077,8.059 -0.437,7.525 0.054,6.869 0.398,6.09 0.741,5.311 0.914,4.42 0.914,3.42 0.914,2.077 0.609,0.937 0,0 m -6.723,22.86 c 1.657,0 3.031,-0.43 4.123,-1.289 1.093,-0.858 1.64,-2.068 1.64,-3.631 0,-1.028 -0.25,-1.904 -0.75,-2.623 C -2.209,14.6 -2.896,14.055 -3.771,13.68 -4.645,13.305 -5.63,13.117 -6.723,13.117 h -4.45 V 22.86 Z M 1.687,9.768 c -1.016,0.703 -2.194,1.224 -3.538,1.57 -0.249,0.063 -0.524,0.091 -0.781,0.142 0.343,0.096 0.721,0.155 1.039,0.277 1.452,0.562 2.585,1.389 3.397,2.485 0.811,1.093 1.217,2.403 1.217,3.933 0,1.876 -0.406,3.414 -1.217,4.615 -0.812,1.202 -1.945,2.102 -3.397,2.693 -1.452,0.592 -3.162,0.891 -5.13,0.891 h -8.43 V -6.418 h 8.899 c 2.123,0 4.021,0.353 5.692,1.055 1.671,0.701 2.999,1.764 3.982,3.185 0.985,1.422 1.476,3.209 1.476,5.364 0,1.5 -0.282,2.795 -0.843,3.888 C 3.49,8.167 2.702,9.063 1.687,9.768"
             style="fill:#ffffff;fill-opacity:1;fill-rule:nonzero;stroke:none"
             id="path540" />
        </g>
        <g
           id="g542"
           transform="translate(1084.749,912.4033)">
          <path
             d="m 0,0 c -0.828,0.765 -1.727,1.397 -2.693,1.898 -0.969,0.498 -1.891,0.906 -2.764,1.216 -1.906,0.657 -3.412,1.32 -4.522,1.993 -1.107,0.671 -1.896,1.39 -2.365,2.154 -0.469,0.765 -0.703,1.6 -0.703,2.506 0,1.061 0.406,2.022 1.218,2.881 0.811,0.858 2.108,1.289 3.889,1.289 1.28,0 2.366,-0.252 3.255,-0.75 0.891,-0.499 1.647,-1.14 2.273,-1.919 0.624,-0.783 1.139,-1.58 1.546,-2.392 l 3.42,1.97 C 2.021,12 1.288,13.102 0.352,14.147 c -0.937,1.047 -2.07,1.906 -3.397,2.577 -1.328,0.671 -2.881,1.008 -4.661,1.008 -1.843,0 -3.482,-0.37 -4.919,-1.102 -1.438,-0.733 -2.562,-1.74 -3.373,-3.021 -0.812,-1.281 -1.218,-2.734 -1.218,-4.358 0,-1.497 0.289,-2.764 0.866,-3.792 0.578,-1.031 1.32,-1.898 2.226,-2.602 0.906,-0.701 1.857,-1.281 2.857,-1.732 0.999,-0.454 1.906,-0.82 2.717,-1.103 1.25,-0.436 2.428,-0.928 3.537,-1.473 1.11,-0.548 2.007,-1.257 2.695,-2.134 0.685,-0.873 1.03,-2.045 1.03,-3.514 0,-1.497 -0.532,-2.73 -1.593,-3.697 -1.062,-0.971 -2.468,-1.454 -4.216,-1.454 -1.312,0 -2.483,0.281 -3.513,0.844 -1.032,0.563 -1.96,1.342 -2.788,2.342 -0.829,0.999 -1.617,2.153 -2.366,3.466 l -3.185,-2.153 c 0.718,-1.439 1.647,-2.791 2.787,-4.053 1.141,-1.266 2.468,-2.28 3.982,-3.046 1.514,-0.764 3.162,-1.148 4.943,-1.148 1.311,0 2.568,0.22 3.77,0.656 1.203,0.437 2.28,1.061 3.233,1.873 0.952,0.812 1.702,1.796 2.249,2.95 0.546,1.159 0.818,2.454 0.818,3.89 0,1.5 -0.265,2.786 -0.795,3.865 C 1.506,-1.686 0.828,-0.766 0,0"
             style="fill:#ffffff;fill-opacity:1;fill-rule:nonzero;stroke:none"
             id="path544" />
        </g>
        <g
           id="g546"
           transform="translate(1127.4238,906.665)">
          <path
             d="m 0,0 c -1.077,-1.937 -2.546,-3.467 -4.403,-4.592 -1.86,-1.123 -3.99,-1.685 -6.394,-1.685 -2.374,0 -4.499,0.562 -6.371,1.685 -1.874,1.125 -3.35,2.655 -4.428,4.592 -1.077,1.937 -1.616,4.138 -1.616,6.605 0,2.468 0.539,4.668 1.616,6.606 1.078,1.936 2.554,3.467 4.428,4.589 1.872,1.125 3.997,1.687 6.371,1.687 2.404,0 4.534,-0.562 6.394,-1.687 C -2.546,16.678 -1.077,15.147 0,13.211 1.077,11.273 1.617,9.073 1.617,6.605 1.617,4.138 1.077,1.937 0,0 m 1.101,18.62 c -1.499,1.516 -3.256,2.702 -5.271,3.561 -2.013,0.858 -4.223,1.29 -6.627,1.29 -2.374,0 -4.576,-0.432 -6.605,-1.29 -2.032,-0.859 -3.795,-2.045 -5.294,-3.561 -1.499,-1.515 -2.662,-3.294 -3.491,-5.339 -0.828,-2.046 -1.241,-4.273 -1.241,-6.676 0,-2.374 0.413,-4.591 1.241,-6.652 0.829,-2.06 1.992,-3.851 3.491,-5.363 1.499,-1.515 3.262,-2.701 5.294,-3.561 2.029,-0.858 4.231,-1.289 6.605,-1.289 2.404,0 4.614,0.431 6.627,1.289 2.015,0.86 3.772,2.046 5.271,3.561 1.499,1.512 2.662,3.303 3.49,5.363 0.828,2.061 1.241,4.278 1.241,6.652 0,2.403 -0.413,4.63 -1.241,6.676 -0.828,2.045 -1.991,3.824 -3.49,5.339"
             style="fill:#ffffff;fill-opacity:1;fill-rule:nonzero;stroke:none"
             id="path548" />
        </g>
        <g
           id="g550"
           transform="translate(1151.292,929.666)">
          <path
             d="m 0,0 h -3.981 v -32.792 h 16.863 v 3.748 H 0 Z"
             style="fill:#ffffff;fill-opacity:1;fill-rule:nonzero;stroke:none"
             id="path552" />
        </g>
        <g
           id="g554"
           transform="translate(1194.9053,907.6494)">
          <path
             d="m 0,0 c 0,-2.25 -0.61,-4.062 -1.828,-5.436 -1.219,-1.375 -2.999,-2.06 -5.341,-2.06 -2.343,0 -4.123,0.685 -5.34,2.06 -1.218,1.374 -1.827,3.186 -1.827,5.436 v 22.017 h -3.981 V 0 c 0,-1.626 0.257,-3.124 0.771,-4.498 0.517,-1.375 1.267,-2.562 2.25,-3.561 0.983,-0.999 2.162,-1.779 3.537,-2.341 1.373,-0.563 2.905,-0.844 4.59,-0.844 1.688,0 3.217,0.281 4.591,0.844 1.375,0.562 2.554,1.342 3.537,2.341 0.983,0.999 1.733,2.186 2.249,3.561 C 3.723,-3.124 3.98,-1.626 3.98,0 V 22.017 H 0 Z"
             style="fill:#ffffff;fill-opacity:1;fill-rule:nonzero;stroke:none"
             id="path556" />
        </g>
        <g
           id="g558"
           transform="translate(1211.3008,925.918)">
          <path
             d="m 0,0 h 8.431 v -29.044 h 3.983 V 0 h 8.432 V 3.748 H 0 Z"
             style="fill:#ffffff;fill-opacity:1;fill-rule:nonzero;stroke:none"
             id="path560" />
        </g>
        <path
           d="m 1244.795,896.874 h 3.981 v 32.792 h -3.981 z"
           style="fill:#ffffff;fill-opacity:1;fill-rule:nonzero;stroke:none"
           id="path562" />
        <g
           id="g564"
           transform="translate(1290.2588,906.665)">
          <path
             d="m 0,0 c -1.077,-1.937 -2.547,-3.467 -4.402,-4.592 -1.861,-1.123 -3.992,-1.685 -6.395,-1.685 -2.374,0 -4.499,0.562 -6.371,1.685 -1.874,1.125 -3.35,2.655 -4.429,4.592 -1.077,1.937 -1.616,4.138 -1.616,6.605 0,2.468 0.539,4.668 1.616,6.606 1.079,1.936 2.555,3.467 4.429,4.589 1.872,1.125 3.997,1.687 6.371,1.687 2.403,0 4.534,-0.562 6.395,-1.687 C -2.547,16.678 -1.077,15.147 0,13.211 1.077,11.273 1.616,9.073 1.616,6.605 1.616,4.138 1.077,1.937 0,0 m 1.101,18.62 c -1.499,1.516 -3.256,2.702 -5.271,3.561 -2.014,0.858 -4.224,1.29 -6.627,1.29 -2.374,0 -4.576,-0.432 -6.605,-1.29 -2.032,-0.859 -3.795,-2.045 -5.294,-3.561 -1.499,-1.515 -2.663,-3.294 -3.491,-5.339 -0.828,-2.046 -1.241,-4.273 -1.241,-6.676 0,-2.374 0.413,-4.591 1.241,-6.652 0.828,-2.06 1.992,-3.851 3.491,-5.363 1.499,-1.515 3.262,-2.701 5.294,-3.561 2.029,-0.858 4.231,-1.289 6.605,-1.289 2.403,0 4.613,0.431 6.627,1.289 2.015,0.86 3.772,2.046 5.271,3.561 1.499,1.512 2.662,3.303 3.49,5.363 0.828,2.061 1.241,4.278 1.241,6.652 0,2.403 -0.413,4.63 -1.241,6.676 -0.828,2.045 -1.991,3.824 -3.49,5.339"
             style="fill:#ffffff;fill-opacity:1;fill-rule:nonzero;stroke:none"
             id="path566" />
        </g>
        <g
           id="g568"
           transform="translate(1334.9707,905.2578)">
          <path
             d="M 0,0 -24.827,26.047 V -8.384 h 3.981 V 16.021 L 3.982,-10.021 V 24.408 H 0 Z"
             style="fill:#ffffff;fill-opacity:1;fill-rule:nonzero;stroke:none"
             id="path570" />
        </g>
        <g
           id="g572"
           transform="translate(1373.8994,909.6396)">
          <path
             d="m 0,0 c -0.531,1.078 -1.21,1.998 -2.038,2.764 -0.828,0.764 -1.726,1.397 -2.692,1.898 -0.969,0.498 -1.891,0.905 -2.764,1.216 -1.907,0.657 -3.413,1.319 -4.523,1.993 -1.107,0.671 -1.895,1.39 -2.365,2.153 -0.468,0.766 -0.703,1.601 -0.703,2.506 0,1.062 0.406,2.023 1.218,2.882 0.811,0.858 2.109,1.288 3.888,1.288 1.282,0 2.368,-0.252 3.256,-0.75 0.892,-0.498 1.648,-1.139 2.273,-1.919 0.625,-0.782 1.138,-1.58 1.546,-2.391 l 3.42,1.969 c -0.532,1.155 -1.266,2.256 -2.203,3.302 -0.935,1.047 -2.068,1.905 -3.396,2.576 -1.327,0.671 -2.881,1.009 -4.661,1.009 -1.843,0 -3.483,-0.37 -4.918,-1.102 -1.438,-0.733 -2.562,-1.741 -3.373,-3.021 -0.813,-1.281 -1.218,-2.734 -1.218,-4.358 0,-1.497 0.288,-2.764 0.866,-3.792 0.577,-1.032 1.319,-1.899 2.226,-2.602 0.905,-0.701 1.857,-1.281 2.856,-1.732 1,-0.454 1.906,-0.821 2.717,-1.103 1.25,-0.436 2.428,-0.929 3.537,-1.474 1.11,-0.547 2.008,-1.256 2.696,-2.133 0.685,-0.873 1.029,-2.045 1.029,-3.514 0,-1.497 -0.531,-2.73 -1.592,-3.697 -1.063,-0.971 -2.468,-1.454 -4.216,-1.454 -1.313,0 -2.483,0.281 -3.513,0.843 -1.033,0.564 -1.961,1.342 -2.79,2.342 -0.827,0.999 -1.616,2.154 -2.364,3.467 l -3.185,-2.153 c 0.717,-1.44 1.646,-2.791 2.787,-4.053 1.139,-1.267 2.467,-2.28 3.982,-3.046 1.514,-0.765 3.161,-1.148 4.943,-1.148 1.31,0 2.568,0.219 3.769,0.656 1.203,0.436 2.28,1.06 3.233,1.873 0.952,0.811 1.702,1.796 2.249,2.95 0.546,1.158 0.819,2.453 0.819,3.89 C 0.796,-2.365 0.53,-1.079 0,0"
             style="fill:#ffffff;fill-opacity:1;fill-rule:nonzero;stroke:none"
             id="path574" />
        </g>
      </g>
    </g>
  </g>
</svg>
