<svg height="512" viewBox="0 0 512 512" width="512" xmlns="http://www.w3.org/2000/svg"><g id="Stickers"><path d="m489.7 173.44c-7.68-9.06-19.85-13.52-29-11.78a258.78 258.78 0 0 0 -91.41 36.21 133.13 133.13 0 0 0 -4-23.16c10.74.66 10.1-.66 103.8-44.76 4.78-2.25 16-7.53 19.43-19.95 2.26-8.15-.09-15.38-1.35-19.27-18.62-57.24-17.9-56.52-21.41-61.84-7.21-10.89-20.76-15.78-33.63-14.02a63.76 63.76 0 0 0 -19.64 6.45 393.51 393.51 0 0 0 -68.17 43.39c-6.9 5.46-24.62 19.52-25.25 40.45-17.1-4.23-28.57 6.2-29.35 6.59 3.67-20-8.41-33.68-26.34-43.51-31-17-68.61 5.72-68.77 40.11-6.42-6.75-11.94-12.88-20.5-16-8.33-3.14-19.25-2.73-29.55 2.85-6.72 3.66-11.4 8.48-16.22 13.56a296.36 296.36 0 0 0 -50 70.93c-3.39 6.75-5.3 13.49-3.12 21.43l-35.77 11.75c-12.28 4-16.07 13.92-18 16.26a23.16 23.16 0 0 0 .62 26.33l47.2 65.6c-7.63 16.37 1.26 25.46-2.17 53.32-29.19 29.24-55.42 40.62-61.1 44.2l.7 10.78a79.12 79.12 0 0 0 45.46 66c8.15 3.72 16.48 2.57 23.43-4.23 19.7-19.37 39.3-39.74 56.9-59 4-.26 8.37-.31 14.8-2.62a37 37 0 0 0 43.85 12.55c64.34-26.12 76.44-40.13 75.58-55.49 0 0 1.78-23.75-4.35-39.74 2.24 1.85 22.82 47.3 71.75 47.3 51.09 0 83.6-49.69 59.51-90.21.72-.13 1.41-.27 2.06-.41 91.67-19 87.44-17.58 93.49-21 10.81-6.09 16.45-17.75 16.78-34.65.4-20.61-2.96-58.76-16.26-74.42z" fill="#fff"/><path d="m233.46 258.94a125.89 125.89 0 0 0 21.16 34.7c6.84 7.95 11.8 8.77 20.32 2.8 7.91-5.54 7.09-9.84 1.41-16.14a167 167 0 0 1 -22.81-32.3 3.24 3.24 0 0 0 -1.39-1.59 3.16 3.16 0 0 0 -2.36.25c-7.78 3-16.45 7.17-18.53 15.23.39-.52.74-1.01 2.2-2.95z" fill="#c72f55"/><path d="m348.47 225.19c-2.83 6.57-6 7.74-13.87 8.81-57.92 7.75-90.64 26.25-102.16 28.27-9.74 1.72-14.13-2-19.69-9-17.88-22.33-11.68-29.83-.6-42.47a740.24 740.24 0 0 1 88.4-85.91 16.59 16.59 0 0 1 21.7.66c13.19 12 17.69 24.34 22.54 39.75 6.12 19.53 11.77 41.12 3.68 59.89z" fill="#ffb020"/><path d="m348.47 225.19c-4 9.23-8 7.49-27.6 10.93-10.68-9.32-22.33-35.13-27.25-48.46-6.38-17.33-10.38-35.86-4.38-53.25q5.6-4.83 11.31-9.51a16.59 16.59 0 0 1 21.7.66c13.19 12 17.69 24.34 22.54 39.75 6.12 19.52 11.77 41.11 3.68 59.88z" fill="#a369f7"/><path d="m88.34 376.74a248.49 248.49 0 0 1 -64.64 51.52c1.41 21.9 15.6 42.5 35.54 51.63 1.94.89 2.75.75 4.41-.88 71.27-70.08 52.71-62 72-64.15 12-1.36 21.11-11.2 29-20.39a604.19 604.19 0 0 1 -46-45.24 210.12 210.12 0 0 0 -30.31 27.51z" fill="#ffad92"/><path d="m420.11 36.55a377.1 377.1 0 0 0 -65.21 41.51c-9.52 7.55-19.51 17.4-18.79 29.52.33 5.36 2.77 10.33 5.23 15.1 16.41 31.86 18.73 33.47 22.71 34.67s8.08-.61 11.79-2.36l85.94-40.45c11.26-5.3 12-9.67 9.14-18.54-18.21-56-17.59-54.94-19.43-57.73-3.55-5.37-10.73-7.37-17.12-6.52a47.35 47.35 0 0 0 -14.26 4.8z" fill="#ff605b"/><path d="m463.81 178.41a240.34 240.34 0 0 0 -86.67 34.64c-18.92 12.3-18.61 21.24-14.28 34a285.11 285.11 0 0 0 13.19 32.2c3.88 8 7 9.49 16.18 7.59 89.7-18.63 85.57-17.45 88.58-19.15 6.61-3.73 8-12.55 8.12-20.13.32-16.4-2.6-51.78-12.21-63.1-3.91-4.59-10.09-6.58-12.91-6.05z" fill="#7ad001"/><path d="m477.94 241c.1 28-17.06 16.08-64.41 33.17-21 7.59-28.91 5.62-37.31-18.91-8.65-24.49-2.5-30.39 8.33-36.73a226.51 226.51 0 0 1 68.74-26.39 17.1 17.1 0 0 1 16.06 6c7.23 9.08 8.54 31.32 8.59 42.86z" fill="#fff"/><path d="m389 107.62c2.46 4.87 4.44 10.31 8.93 13.4 4.28 3 7 1.43 10-2.47a187 187 0 0 0 18-28c2.26-4.3.92-5.84-2-6.84-18.53-6.36-37.78-5.31-40.93-3.71a6.65 6.65 0 0 0 -3.32 6.46c.32 3.48 8.12 18.73 9.32 21.16z" fill="#fff"/><path d="m346.24 215.34c-2.15 15.1-15.13 17-29.39-21.84-6.39-17.37-12.67-35.64-12-54.22 1.11-25.95 31.79-.57 36.17 31.51 1.98 14.09 7.45 29.07 5.22 44.55z" fill="#c72f55"/><path d="m220.27 230.09c-.61-.73.56-.85 9.32-8.53a.5.5 0 0 1 .65.77l-9.24 7.82a.51.51 0 0 1 -.73-.06z"/><path d="m224.33 237.54c-.62-.74.56-.85 9.28-8.45a.5.5 0 0 1 .64.77l-9.25 7.74a.51.51 0 0 1 -.67-.06z"/><path d="m226.84 243c-.71-1.07 2.64-1.27 9.84-8.88a.5.5 0 0 1 .73.69 58.63 58.63 0 0 1 -9.87 8.33.51.51 0 0 1 -.7-.14z"/><path d="m255.19 83.17a30 30 0 0 0 -27.14-.62c-25.19 12.38-20.8 50.79 9 51.81 16.43.57 35.8-12.64 36.3-28.91.31-11.03-10.43-18.03-18.16-22.28z" fill="#c72f55"/><path d="m243.36 99.12a11.09 11.09 0 0 0 -7.89-9 9.73 9.73 0 0 0 -10.78 4.61c-1.4 2.68-1.35 5.87-.86 8.85 1.94 11.62 8 14.79 9.45 21.8 17-1.13 30.31-18.87 29.26-25-.71-4.09-5.8-7.32-13.07-4.27-2.35 1-4.53 2.41-6.11 3.01z" fill="#fff"/><path d="m232.44 262.27c-9.74 1.72-14.13-2-19.69-9-17.88-22.33-11.68-29.83-.6-42.47 1.93 23.67 9.93 40.28 20.29 51.47z" fill="#a369f7"/><path d="m323.41 198.07a32.77 32.77 0 0 1 -3.46 3.51c-3.14-7.6-10.18-26.67-12.94-40 20.99 1.32 19.99.42 21.63 4.42a128.49 128.49 0 0 1 5 15.3c1.28 4.93.88 4.25-10.23 16.77z" fill="#eae5db"/><path d="m122 203.55-77.25 25.5a11.36 11.36 0 0 0 -6 4.62c-1.16 2.56-6.48 6.89-2.91 11.84l125.17 174a19.93 19.93 0 0 0 23.68 6.81c23.16-9.4 65.58-28.1 65-38.76-2.14-38.61-88-149-112-179.31a14.26 14.26 0 0 0 -15.69-4.7z" fill="#00abfe"/><path d="m233.57 387.74-51.72 25.09a6.49 6.49 0 0 1 -8.1-2c-39.73-55.44-20.45-28.53-33.13-46.2l-86.91-121.27a4.77 4.77 0 0 1 1.78-7.08l10.63-5.16 11.3 4.88 35-11.44 3.11-7.37 6.92-3a3.12 3.12 0 0 1 3.58.8c32.94 37.45 97 117 110.83 165.24a6.35 6.35 0 0 1 -3.29 7.51z" fill="#fff"/><path d="m163.57 260.25c-10 33.91-14.67 69.67-22.95 104.34l-26-36.24a832.29 832.29 0 0 1 25.44-97c6.57 7.81 14.72 17.7 23.51 28.9z" fill="#eae5db"/><path d="m195 177.45c-65.75 41.31-59.7 57.56-77.82 43.26q-9.63-7.59-18.91-15.59c-8.31-7.21-8.12-11-4.7-17.8a280.08 280.08 0 0 1 47.15-66.85c6.82-7.17 14.26-14.37 24.45-12.93 5.23.6 9.1 4.28 12.76 8q13.26 13.5 25.21 28.21c12.09 14.87 8.53 23.19-8.14 33.7z" fill="#bd3234"/><path d="m191.69 297.9q-14.79 48.32-29.59 96.64l-10-14q15.33-47.52 30.68-95 4.47 6.05 8.91 12.36z" fill="#eae5db"/><path d="m413.53 274.2c-21 7.59-28.91 5.62-37.31-18.91 6.44-9.23 13.34-18.16 20.66-26.71 7.82-9.05 12.25-9 20.77-3.53 17.89 11.45 18.5 13.18 21.79 9 13.18-16.13 12.56-17.05 16.86-15.22l21 9.12c3.92 44.96-9.51 26.67-63.77 46.25z" fill="#a369f7"/><path d="m435.54 203.32c-12-.86-15.8 16.93-4.18 18.42 5.16.66 10.75-2.63 12-7.67s-2.85-10.91-7.82-10.75z" fill="#ffb020"/><path d="m83.13 382.38a127.55 127.55 0 0 0 .77-37.57c-1.59-12.37-.92-14.48 3.75-21.52 20.87-31.45 22.42-35.61 28.16-36.08 3.86-.31 7.37 2.84 8.61 6.51 2.78 8.18-3.45 22.73-8.12 30.12a5.77 5.77 0 0 0 -1.15 2.74 5.71 5.71 0 0 0 1.08 3 74 74 0 0 1 5.08 63.2 337.36 337.36 0 0 1 -38.18-10.4z" fill="#ffad92"/><path d="m165.12 107.54q-4.22 30.77-10.82 61.16c-1.59 7.26-3 9.83-10.92 14a158.68 158.68 0 0 1 -50.7 16.3c-2.47-4.18-1.27-7.52.84-11.7a280.08 280.08 0 0 1 47.15-66.85c6.82-7.15 14.26-14.35 24.45-12.91z" fill="#ff605b"/><g fill="#ffad92"><path d="m176.82 258.88c4.26-3 11.05 2.71 13.5 7.25 4.33 8 .35 16.91-3.91 24.47-1.24 2.2-2.78 4.59-5.25 5.16-4.42 1-10.15-4.63-8.54-13.73 1.25-7.11 5.93-11.8 6.53-15.82a9.12 9.12 0 0 0 -2.33-7.33z"/><path d="m210.31 294.37c-2.94-5.92-5.32-6.46-9.69-5.05a56.67 56.67 0 0 0 -18 9.65c-1.47 1.17-3 2.56-3.31 4.41s.88 6.43 3.09 8.47c3.24 3 8.35 2.11 12.6.92 4.7-1.32 9.57-2.91 13-6.38a10.88 10.88 0 0 0 2.31-12.02z"/><path d="m196.83 317.2a93.41 93.41 0 0 1 14.5-7.75c6.55-2.79 11.08-1.92 12.34 5.11 1 5.37-1.11 7.43-5.87 10.24-6.91 4.07-16.07 8.85-21.08 2.49-4.52-5.74.21-10.59.11-10.09z"/><path d="m220.34 319.85c2.47 1.56 5 3.66 5.37 6.56.33 2.7-1.4 5.32-3.66 6.83-2.83 1.88-6.27 2.4-12.85 3.86a4.85 4.85 0 0 1 -3.15 0c-1.48-.71-1.84-2.71-1.49-4.32 1.16-5.39 10.02-11.78 15.78-12.93z"/></g><path d="m121.75 395.54a.82.82 0 0 1 -.26 0 1 1 0 0 1 -.71-1.22c0-.17 4.64-17.53 4.23-31.58a1 1 0 0 1 1-1 1 1 0 0 1 1 1c.42 14.34-4.25 32-4.29 32.16a1 1 0 0 1 -.97.64z" fill="#ed6c4d"/><ellipse cx="334.12" cy="332.88" fill="#00abfe" rx="50.52" ry="44.22"/><path d="m367.93 313.93c-1-1.48-3.21-1.46-5-1.09-25.58 7.22-21.11 6.09-22.88 6.44 5.08-7.38 3.09-16.61 1.56-17.61-2.52-1.64-6.63 5.76-9 9.15-4.19 6-15 17-19.72 19.85 5.1 6.88 7 22.8 9.59 24.14a2.29 2.29 0 0 0 2-.27c3.53-1.77 3.15-2.63 5.1-2.21 8.67 1.85 30.26-.94 31.91-1.22 2.11-.37 3.06-1 3.61-4.28 4.7-27.38-.36-23.75 3.34-27.05 1.85-1.57.83-3.9-.51-5.85z" fill="#fff"/><path d="m298.16 333.7c1.12-.6 9.37-4.8 10.53-4.25 1.56.74 8.93 24.66 9.76 27.52.58 2 .42 2.85-1.58 4.08-1 .6-6 3.49-7.16 3.25-1.29-.28-3.06-4.62-3.58-5.84-2.86-6.72-9.59-21.28-8.73-23.63.2-.54.84-.97.76-1.13z" fill="#fff"/></g></svg>