<svg id="Layer_1" enable-background="new 0 0 55 55" height="512" viewBox="0 0 55 55" width="512" xmlns="http://www.w3.org/2000/svg"><g id="Protection_Error"><g><g><path d="m25.8466702 51.349247c-.2535458.1478806-.4155273.2112465-.7113304.0774651-7.2052479-3.3666801-14.1780157-7.9728928-17.4601822-14.6287918-1.6340337-3.3244667-2.2538409-6.9657593-2.6905174-10.5789375-.6550145-5.3387337-.936718-10.7197685-.8592529-16.0937538.0141006-.8804026.7043228-1.6481762 1.6621909-1.8594217 10.0085621-2.1965265 14.8510733-2.9527564 18.9462929-4.585146.5070915-.204195 1.0775909-.2394457 1.6058331-.0845151 5.6982975 1.7150099 11.3779278 3.5093243 16.9383564 5.6894016.5453644.2138224 1.5106544.3774786 1.7605209.9738655.3124695.7458162.115963 2.0502005.1426926 2.8572769.6188129 18.6856494-3.2725941 29.3506751-19.3346039 38.2325568z" fill="#3a97d4"/></g><g><path d="m25.5649662 45.5667877c-.1972313.1055794-.3169537.1619797-.5423412.0562286-5.4584999-2.5495567-10.7409191-6.0360069-13.2201052-11.0860291-1.2396145-2.5143929-1.7115421-5.2753696-2.0425529-8.0080585-.4930344-4.0428047-.7113724-8.1208591-.6479645-12.1848135.0070076-.6761217.5352488-1.2537146 1.2607222-1.4156952 7.582077-1.6518593 11.338604-2.2690029 14.3540955-3.4722614.3803196-.1550169.809988-.1831312 1.2114143-.0634518 12.6719532 3.7880926 12.5206356 3.7268772 13.2937756 4.3249521.6469154.5004272.9762268 1.1835308.9559288 1.9915333-.024025.9561405.0573044 1.9234447.0696831 2.8813095.184616 14.2849599-4.2464982 21.2038213-14.6926557 26.976286z" fill="#fff"/></g><g><path d="m50.3909302 39.5193672c-.3831787-.0203934-2.6990547-.1436348-2.5507813-.1357422-.2753906-.0146484-.4873047-.25-.4726563-.5253906.0151367-.2763672.2495117-.5175781.5263672-.4726563l2.5234375.1347656c.6445542.0342828.6165391.9990235-.0263671.9990235z"/></g><g><path d="m46.7903442 36.8113594c-.1611328-.2246094-.109375-.5371094.1152344-.6972656l1.9267578-1.3798828c.2246094-.1621094.5366211-.1103516.6972656.1152344.1611328.2246094.109375.5371094-.1152344.6972656l-1.9267578 1.3798828c-.2203712.1591568-.5347251.1123199-.6972656-.1152344z"/></g><g><path d="m45.0056763 35.1619453.2138672-2.2539063c.0263672-.2744141.2680664-.4619141.5449219-.4511719.2749023.0263672.4765625.2705078.4501953.5449219l-.2138672 2.2539063c-.0629387.6671448-1.0582123.5629082-.9951172-.09375z"/></g><g><path d="m12.7825308 39.9705391c-3.2851563-3.1220703-5.2792969-7.5087891-5.4711914-12.0361328-.0132861-.312233.484704-.3809395.5-.0214844.1860352 4.3994141 2.1235352 8.6621094 5.315918 11.6943359.2393894.2288781-.1055708.5903588-.3447266.3632813z"/></g><g><path d="m37.8306198 49.0310097c2.4020576.1603966 4.8507271-.9111023 6.3752289-2.7742996 3.7521935-4.5857964 1.0451965-11.6480789-4.8971748-12.2797775-2.9943237-.3183098-6.0069885 1.3850403-7.4781685 3.9796143-2.6999665 4.7616614.5308685 10.7092551 6.0001144 11.0744628z" fill="#5bd9c3"/></g><g><g><path d="m36.4983215 44.2069016-2.0458717-1.029911c-.4025612-.2032738-.5647774-.6935158-.3619041-1.0968704.2028732-.4017639.6931152-.5643806 1.0960732-.3619041l2.046669 1.0307083c1.2455406-1.202095 3.3496017-3.3057594 4.2444-3.9865227.3579178-.2734222.8704796-.204071 1.1439018.1554413.2730217.3587189.20327.8704834-.1554451 1.1439056-.5942688.4519806-2.0518494 1.8461876-3.9988747 3.8231049-.5175591.527706-1.310585.6544455-1.9689484.3220481z" fill="#fff"/></g></g><g><path d="m14.5746555 24.0601597c-.3640318 2.3671532.1208458 4.8559055 1.3468952 6.9132671 1.7309818 2.9046555 4.9476814 4.8624306 8.3214874 5.087719 3.3738079.2252846 6.8130856-1.2796898 8.9543228-3.896637 1.0373116-1.267767 1.778965-2.7759151 2.1497345-4.3714638 1.4429703-6.2096138-2.8617172-12.2205801-9.0280609-12.8760891-4.2056694-.4470797-8.437109 1.9453583-10.5034513 5.5895615-.6221513 1.0972252-1.0491285 2.306448-1.2409277 3.5536423z" fill="#ff5f6e"/></g><g><g><path d="m25.0416985 29.1256943c-.36413.0044613-.3554077-.6422997-.392931-.8956013-1.3393078-9.0411148-1.349823-8.9880123-1.349823-9.3802223 0-1.4967518 1.935421-2.0248413 2.9757099-1.139122.8464127.7206478.5771904 1.1132507-.8308525 10.4071465-.0475445.3138255-.0428353 1.0033969-.4021034 1.0077991zm-.0203801 1.4083919c.9829102 0 1.7069969.7348938 1.7069969 1.5581303 0 1.4003525-1.8401222 2.1012535-2.914196 1.1119385-1.0837707-.9982491-.2937698-2.6700688 1.2071991-2.6700688z" fill="#fff"/></g></g></g></g></svg>