<?xml version="1.0" encoding="UTF-8"?>
<!-- Generator: Adobe Illustrator 24.2.3, SVG Export Plug-In . SVG Version: 6.00 Build 0)  -->
<svg xmlns="http://www.w3.org/2000/svg" xmlns:xlink="http://www.w3.org/1999/xlink" version="1.1" id="Capa_1" x="0px" y="0px" viewBox="0 0 512.04 512.04" style="enable-background:new 0 0 512.04 512.04;" xml:space="preserve" width="512" height="512">
<g>
	<path d="M484.761,195.055C481.356,78.992,370.56-2.079,256.019,0.041C141.504-2.097,30.655,79.009,27.286,195.052   c-15.913,7.838-26.891,24.221-26.891,43.125v106.701c-0.313,29.998,28.077,52.876,57.313,47.338V501.04c0,6.075,4.925,11,11,11   h375.088c6.075,0,11-4.925,11-11V392.298c29.129,5.203,57.142-17.592,56.848-47.421c0,0,0-106.701,0-106.701   C511.645,219.275,500.67,202.894,484.761,195.055z M75.595,344.877c0.035,14.779-12.417,26.633-27.154,26.045   c-14.362,0-26.046-11.684-26.046-26.045V238.176c-0.035-14.779,12.417-26.634,27.154-26.046c14.361,0,26.045,11.685,26.045,26.046   C75.61,244.058,75.584,342.126,75.595,344.877z M49.599,190.132c3.298-44.737,24.13-85.66,59.536-116.305   C222.972-27.17,449.482,24.459,462.446,190.132c-11.257,0.01-21.612,3.921-29.806,10.439c-42.234-188.031-311.083-187.897-353.24,0   C71.207,194.054,60.854,190.143,49.599,190.132z M411.468,206.863h-51.743l-29.17-43.569c-2.035-3.038-5.446-4.867-9.103-4.88   c-3.655-0.013-7.081,1.793-9.136,4.818l-29.646,43.631H100.572C136.206,39.678,375.901,39.796,411.468,206.863z M79.709,490.04   v-107.8c0.693-0.561,1.375-1.136,2.036-1.733c12.729,47.077,44.334,86.475,86.164,109.533H79.709z M112.337,400.243h71.845v-22   h-80.216c-4.139-14.001-6.372-28.811-6.372-44.136c0.124-5.817-0.28-101.705,0.226-105.244h190.674   c3.644,0,7.051-1.804,9.099-4.818l23.753-34.959l23.365,34.897c2.042,3.05,5.47,4.88,9.141,4.88h60.368   c0.147,2.77,0.226,105.244,0.226,105.244c0,85.979-69.949,155.928-155.928,155.928   C194.727,491.987,137.777,454.802,112.337,400.243z M432.797,490.04h-88.665c41.83-23.058,73.435-62.456,86.164-109.533   c0.807,0.73,1.646,1.424,2.501,2.099V490.04z M489.645,344.877c-1.211,34.646-51.974,34.681-53.2,0   c0.054-2.356-0.039-101.184,0-106.701c1.208-34.642,51.972-34.687,53.2,0C489.645,238.176,489.645,344.877,489.645,344.877z"/>
	<path style="fill:#33CCCC;" d="M304.858,433.156h-97.675c-12.682,0-23-10.317-23-23V368.33c0-12.683,10.318-23,23-23h97.675   c12.682,0,23,10.317,23,23v41.826C327.858,422.838,317.54,433.156,304.858,433.156z M207.183,367.33c-0.523,0-1,0.477-1,1v41.826   c0,0.523,0.477,1,1,1h97.675c0.523,0,1-0.477,1-1V368.33c0-0.523-0.477-1-1-1H207.183z"/>
</g>















</svg>
