<?xml version="1.0" encoding="UTF-8"?>
<!-- Generator: Adobe Illustrator 26.0.3, SVG Export Plug-In . SVG Version: 6.00 Build 0)  -->
<svg xmlns="http://www.w3.org/2000/svg" xmlns:xlink="http://www.w3.org/1999/xlink" version="1.1" id="Capa_1" x="0px" y="0px" viewBox="0 0 512 512" style="enable-background:new 0 0 512 512;" xml:space="preserve" width="512" height="512">
<g>
	<g>
		<path d="M425.344,153.03c-7.152-6.837-14.548-13.907-17.128-20.159c-2.795-6.773-2.583-17.387-2.379-27.652    c0.331-16.608,0.705-35.432-11.467-47.662c-12.194-12.254-31.038-11.956-47.667-11.695c-10.247,0.16-20.842,0.328-27.589-2.483    c-6.245-2.602-13.296-10.005-20.114-17.164C287.296,13.928,274.031,0,256,0s-31.296,13.928-43,26.216    c-6.818,7.159-13.869,14.561-20.115,17.164c-6.745,2.811-17.343,2.643-27.589,2.483c-16.624-0.261-35.471-0.56-47.666,11.694    c-12.172,12.23-11.798,31.055-11.467,47.663c0.204,10.265,0.416,20.879-2.379,27.652c-2.58,6.251-9.976,13.322-17.128,20.159    c-12.254,11.714-26.143,24.99-26.143,43c0,18.009,13.889,31.286,26.142,42.999c7.153,6.837,14.549,13.907,17.129,20.159    c2.795,6.773,2.583,17.387,2.379,27.652c-0.331,16.608-0.705,35.432,11.467,47.662c8.462,8.503,20.127,10.96,32.032,11.582V501    c0,3.692,1.852,7.138,4.932,9.175c3.079,2.037,6.977,2.394,10.373,0.948L256,472.407l91.033,38.716    c1.382,0.588,2.846,0.877,4.304,0.877c2.127,0,4.242-0.617,6.069-1.825c3.079-2.037,4.932-5.482,4.932-9.175V346.085    c11.905-0.621,23.569-3.078,32.032-11.582c12.172-12.23,11.798-31.055,11.467-47.663c-0.204-10.265-0.416-20.879,2.379-27.653    c2.58-6.252,9.976-13.321,17.129-20.159c12.253-11.714,26.142-24.99,26.142-42.999C451.487,178.02,437.598,164.744,425.344,153.03    z M260.305,450.331c-2.75-1.17-5.859-1.17-8.609,0l-80.033,34.038V346.124c8.099-0.029,15.872,0.326,21.224,2.555    c6.245,2.602,13.296,10.005,20.114,17.164c11.704,12.288,24.97,26.216,43,26.216s31.296-13.928,43-26.216    c6.818-7.159,13.869-14.562,20.114-17.164c5.351-2.23,13.124-2.584,21.224-2.555v138.244L260.305,450.331z M410.143,223.126    c-8.805,8.417-17.909,17.12-22.263,27.669c-4.546,11.016-4.288,23.962-4.039,36.483c0.256,12.829,0.52,26.094-5.064,31.706    c-5.602,5.627-18.884,5.416-31.727,5.216c-12.496-0.199-25.422-0.4-36.397,4.172c-10.52,4.384-19.195,13.491-27.584,22.298    c-9.079,9.532-18.467,19.389-27.069,19.389c-8.602,0-17.99-9.857-27.069-19.389c-8.389-8.807-17.064-17.914-27.584-22.298    c-8.731-3.639-18.697-4.253-28.702-4.253c-2.568,0-5.141,0.04-7.694,0.081c-12.842,0.202-26.126,0.411-31.727-5.217    c-5.584-5.61-5.32-18.876-5.064-31.705c0.249-12.521,0.507-25.468-4.039-36.483c-4.354-10.549-13.458-19.252-22.263-27.669    c-9.51-9.091-19.344-18.492-19.344-27.097c0-8.605,9.834-18.005,19.344-27.097c8.805-8.416,17.909-17.12,22.263-27.669    c4.546-11.016,4.288-23.962,4.039-36.483c-0.256-12.829-0.52-26.094,5.064-31.705c5.601-5.628,18.883-5.419,31.727-5.216    c12.498,0.196,25.423,0.4,36.396-4.172c10.521-4.383,19.195-13.491,27.584-22.298C238.01,31.856,247.398,22,256,22    c8.603,0,17.99,9.856,27.069,19.389c8.389,8.808,17.064,17.915,27.583,22.298c10.975,4.573,23.901,4.37,36.397,4.172    c12.848-0.202,26.126-0.411,31.727,5.217c5.584,5.611,5.32,18.876,5.064,31.705c-0.249,12.521-0.507,25.467,4.039,36.483    c4.353,10.549,13.458,19.252,22.263,27.669c9.51,9.091,19.344,18.492,19.344,27.097    C429.487,204.634,419.653,214.035,410.143,223.126z"/>
		<path style="fill:#33CCCC;" d="M256,300.356c-58.029,0-105.24-47.346-105.24-105.542S197.971,89.271,256,89.271    s105.24,47.346,105.24,105.543S314.03,300.356,256,300.356z M256,111.271c-45.898,0-83.24,37.477-83.24,83.543    c0,46.065,37.342,83.542,83.24,83.542s83.24-37.477,83.24-83.542C339.24,148.748,301.899,111.271,256,111.271z"/>
	</g>
	<path style="fill:#33CCCC;" d="M246.244,226.241c-2.815,0-5.63-1.074-7.778-3.222l-18.91-18.91c-4.296-4.296-4.296-11.261,0-15.557   c4.295-4.295,11.26-4.296,15.557,0l11.132,11.132l30.644-30.645c4.297-4.296,11.26-4.296,15.557,0   c4.296,4.296,4.296,11.261,0,15.557l-38.422,38.422C251.874,225.167,249.06,226.241,246.244,226.241z"/>
</g>















</svg>
