<?xml version="1.0" encoding="UTF-8"?>
<!-- Generator: Adobe Illustrator 27.1.1, SVG Export Plug-In . SVG Version: 6.00 Build 0)  -->
<svg xmlns="http://www.w3.org/2000/svg" xmlns:xlink="http://www.w3.org/1999/xlink" version="1.1" id="Capa_1" x="0px" y="0px" viewBox="0 0 512 512" style="enable-background:new 0 0 512 512;" xml:space="preserve" width="512" height="512">
<g id="Outline_00000135649231598957725590000015867244199638843533_">
	<path d="M438.762,512c16.96,0,30.759-13.798,30.759-30.758v-0.013c1.263,0.086,2.534,0.146,3.818,0.146   c14.236,0,25.818-11.582,25.818-25.818v-59.274c0-14.236-11.582-25.818-25.818-25.818c-1.285,0-2.555,0.06-3.818,0.146v-0.013   c0-16.96-13.799-30.758-30.759-30.758h-41.39c-9.802-8.099-21.35-14.116-33.664-17.491l-81.889-22.385v-17.753   c16.971-15.378,28.064-37.124,29.479-61.427c22.43-23.313,34.735-53.777,34.735-86.294v-12.914   c0-32.531-12.999-63.099-36.603-86.071c-14.69-14.299-32.926-24.868-52.733-30.564c-1.876-0.539-3.862-0.57-5.752-0.089   l-6.818,1.734l-2.938-2.852c-1.771-1.718-4.067-2.791-6.521-3.047C230.298,0.231,225.843,0,221.424,0   C152.714,0,96.814,54.538,96.814,121.574v12.914c0,32.518,12.305,62.981,34.735,86.294c1.414,24.303,12.508,46.049,29.479,61.427   v17.753l-81.892,22.384c-39.033,10.669-66.294,46.382-66.294,86.846V501c0,6.075,4.925,11,11,11H438.762z M344.262,339.839h-71.348   c3.303-5.406,5.759-11.322,7.246-17.523L344.262,339.839z M118.814,121.574c0-54.906,46.03-99.574,102.609-99.574   c2.415,0,4.843,0.083,7.253,0.248l4.542,4.408c2.742,2.662,6.672,3.708,10.372,2.766l9.811-2.496   c15.258,4.858,29.272,13.235,40.685,24.343c19.312,18.795,29.946,43.764,29.946,70.306v12.914c0,17.567-4.361,34.408-12.576,49.337   v-47.529c0-5.06-3.452-9.467-8.365-10.68c-15.667-3.866-29.702-12.892-40.587-26.101c-2.428-2.946-6.211-4.422-9.992-3.902   c-3.782,0.522-7.023,2.967-8.562,6.461c-11.778,26.724-37.315,42.051-70.064,42.051c-11.792,0-20.926-0.941-28.744-2.96   c-3.293-0.851-6.796-0.13-9.486,1.954c-2.691,2.083-4.265,5.294-4.265,8.697v32.009c-8.215-14.929-12.576-31.77-12.576-49.337   V121.574z M153.403,215.986c-0.001-0.046-0.003-0.091-0.003-0.136c-0.001-0.118-0.009-0.235-0.009-0.353V165.02   c6.146,0.747,12.886,1.105,20.495,1.105c35.93,0,65.236-14.812,82.594-41.178c9.747,8.742,20.892,15.357,32.977,19.551v70.998   c0,0.118-0.008,0.235-0.009,0.353c-0.001,0.045-0.003,0.091-0.003,0.136c-0.266,37.288-30.671,67.542-68.021,67.542   C184.074,283.528,153.669,253.273,153.403,215.986z M221.424,305.528c13.726,0,26.742-3.092,38.395-8.61v11.44   c0,12.533-6.236,24.345-16.437,31.48h-12.079c-6.816,0-13.119,2.232-18.223,5.999c-17.415-3.81-30.051-19.188-30.051-37.479v-11.44   C194.681,302.436,207.697,305.528,221.424,305.528z M34.843,409.192c0-30.577,20.6-57.563,50.095-65.625l77.702-21.238   c4.671,19.926,19.145,36.08,38.382,42.908c-0.308,1.742-0.477,3.531-0.477,5.36v110.645c0,3.043,0.451,5.981,1.278,8.758h-92.886   v-73.96c0-6.075-4.925-11-11-11c-6.075,0-11,4.925-11,11V490H34.843V409.192z M438.762,361.838c4.83,0,8.759,3.929,8.759,8.758   v6.266c-17.606,9.304-29.638,27.797-29.638,49.057c0,21.26,12.032,39.753,29.638,49.057v6.265c0,4.829-3.929,8.758-8.759,8.758   H231.303c-4.83,0-8.759-3.929-8.759-8.758V370.597c0-4.829,3.929-8.758,8.759-8.758H438.762z M477.157,455.557   c0,2.105-1.713,3.818-3.818,3.818c-18.447,0-33.456-15.008-33.456-33.456c0-18.447,15.009-33.456,33.456-33.456   c2.105,0,3.818,1.713,3.818,3.818V455.557z"/>
	<path style="fill:#33CCCC;" d="M335.032,480.387c-6.15,2.877-44.837-42.015-49.423-44.909   c-7.095-7.105-10.992-16.541-10.973-26.571c-0.931-30.224,37.259-48.706,60.396-29.781c23.138-18.911,61.329-0.454,60.395,29.783   c0.02,10.029-3.877,19.465-10.973,26.569C379.717,438.515,341.391,483.087,335.032,480.387z M312.241,393.456   c-13.273-0.564-20.976,17.307-11.066,26.474c-0.001,0,33.857,33.893,33.857,33.893c5.199-7.258,40.31-34.64,38.397-44.871   c0.358-13.476-17.433-20.757-26.672-10.919C329.62,417.048,327.642,393.491,312.241,393.456z"/>
</g>















</svg>
